<svg width="86" height="86" viewBox="0 0 86 86" fill="none" xmlns="http://www.w3.org/2000/svg">
<mask id="mask0_109_10" style="mask-type:alpha" maskUnits="userSpaceOnUse" x="0" y="0" width="86" height="86">
<circle cx="42.6084" cy="42.6084" r="42.0207" fill="#C4C4C4" stroke="#F8BB54" stroke-width="1.17541"/>
</mask>
<g mask="url(#mask0_109_10)">
<path d="M-24.7617 17.869C-24.7617 17.869 -4.92074 14.1936 0.198484 1.32992C5.09433 -11.0013 25.2618 -14.3159 25.2618 -14.3159" stroke="#2C698D" stroke-width="1.32119" stroke-miterlimit="10"/>
<path d="M-24.7617 24.0516C-24.7617 24.0516 -0.41994 19.8096 5.85017 4.28393C11.8283 -10.5376 36.5479 -14.3159 36.5479 -14.3159" stroke="#2C698D" stroke-width="1.32119" stroke-miterlimit="10"/>
<path d="M-24.7617 30.2516C-24.7617 30.2516 4.06362 25.4257 11.4847 7.27229C18.5622 -10.091 47.8342 -14.3159 47.8342 -14.3159" stroke="#2C698D" stroke-width="1.32119" stroke-miterlimit="10"/>
<path d="M-24.7617 36.4345C-24.7617 36.4345 8.56436 31.0417 17.1364 10.2263C25.2961 -9.6273 59.1204 -14.3159 59.1204 -14.3159" stroke="#2C698D" stroke-width="1.32119" stroke-miterlimit="10"/>
<path d="M-24.7617 42.6172C-24.7617 42.6172 13.0651 36.6578 22.7881 13.1974C32.03 -9.16358 70.3895 -14.3159 70.3895 -14.3159" stroke="#2C698D" stroke-width="1.32119" stroke-miterlimit="10"/>
<path d="M-24.7617 48.8171C-24.7617 48.8171 17.5487 42.2909 28.4226 16.1686C38.7811 -8.71711 81.6756 -14.3159 81.6756 -14.3159" stroke="#2C698D" stroke-width="1.32119" stroke-miterlimit="10"/>
<path d="M-24.7617 54.9999C-24.7617 54.9999 22.0494 47.8897 34.0743 19.1398C45.5151 -8.25339 92.9618 -14.3159 92.9618 -14.3159" stroke="#2C698D" stroke-width="1.32119" stroke-miterlimit="10"/>
<path d="M-24.7617 61.1827C-24.7617 61.1827 26.5502 53.5058 39.7088 22.0938C52.249 -7.78967 104.248 -14.3159 104.248 -14.3159" stroke="#2C698D" stroke-width="1.32119" stroke-miterlimit="10"/>
<path d="M-24.7617 67.3828C-24.7617 67.3828 31.0336 59.1391 45.3605 25.0821C58.983 -7.34319 115.517 -14.3159 115.517 -14.3159" stroke="#2C698D" stroke-width="1.32119" stroke-miterlimit="10"/>
<path d="M-24.7617 73.5651C-24.7617 73.5651 35.5345 64.7551 50.995 28.0533C65.7169 -6.87947 126.803 -14.3159 126.803 -14.3159" stroke="#2C698D" stroke-width="1.32119" stroke-miterlimit="10"/>
<path d="M-24.7617 79.7651C-24.7617 79.7651 40.0352 70.371 56.6467 31.0245C72.4508 -6.41576 138.089 -14.3159 138.089 -14.3159" stroke="#2C698D" stroke-width="1.32119" stroke-miterlimit="10"/>
<path d="M-24.7617 85.9484C-24.7617 85.9484 44.5188 75.9872 62.2812 33.9957C79.1847 -5.96915 149.375 -14.3159 149.375 -14.3159" stroke="#2C698D" stroke-width="1.32119" stroke-miterlimit="10"/>
<path d="M-24.7617 92.1304C-24.7617 92.1304 49.0194 81.6032 67.9329 36.9496C85.9187 -5.50544 160.661 -14.3159 160.661 -14.3159" stroke="#2C698D" stroke-width="1.32119" stroke-miterlimit="10"/>
<path d="M-24.7617 98.3305C-24.7617 98.3305 53.5203 87.2193 73.5846 39.938C92.6526 -5.04172 171.931 -14.3159 171.931 -14.3159" stroke="#2C698D" stroke-width="1.32119" stroke-miterlimit="10"/>
<path d="M-24.7617 104.514C-24.7617 104.514 58.0038 92.8353 79.2191 42.892C99.3866 -4.59524 183.217 -14.3159 183.217 -14.3159" stroke="#2C698D" stroke-width="1.32119" stroke-miterlimit="10"/>
<path d="M-24.7617 110.697C-24.7617 110.697 62.5046 98.4514 84.8708 45.8631C106.12 -4.13152 194.503 -14.3159 194.503 -14.3159" stroke="#2C698D" stroke-width="1.32119" stroke-miterlimit="10"/>
<path d="M-24.7617 116.897C-24.7617 116.897 67.0053 104.084 90.5052 48.8344C112.854 -3.66781 205.789 -14.3159 205.789 -14.3159" stroke="#2C698D" stroke-width="1.32119" stroke-miterlimit="10"/>
<path d="M-24.7617 123.079C-24.7617 123.079 71.4889 109.683 96.157 51.8055C119.588 -3.22133 217.059 -14.3159 217.059 -14.3159" stroke="#2C698D" stroke-width="1.32119" stroke-miterlimit="10"/>
</g>
</svg>
